<svg width="24" height="24" viewBox="0 0 24 24" fill="none" xmlns="http://www.w3.org/2000/svg">
  <path d="M22 16.92V19.92C22 20.52 21.52 21 20.92 21C10.93 21 3 13.07 3 3.08C3 2.48 3.48 2 4.08 2H7.08C7.68 2 8.16 2.48 8.16 3.08C8.16 4.24 8.35 5.36 8.72 6.4C8.84 6.72 8.76 7.08 8.52 7.32L7.12 8.72C8.56 11.76 11.24 14.44 14.28 15.88L15.68 14.48C15.92 14.24 16.28 14.16 16.6 14.28C17.64 14.65 18.76 14.84 19.92 14.84C20.52 14.84 21 15.32 21 15.92V18.92C21 19.52 20.52 20 19.92 20H16.92Z" fill="#6366F1"/>
</svg>